<?xml version="1.0" encoding="UTF-8" standalone="no"?>
<!-- Created with Inkscape (http://www.inkscape.org/) -->

<svg
   width="1225.7837"
   height="426.65289"
   viewBox="0 0 324.32192 112.88524"
   version="1.1"
   id="svg1"
   xml:space="preserve"
   inkscape:version="1.3-dev (38535c2, 2022-11-14)"
   sodipodi:docname="horizontalFabex.svg"
   inkscape:export-filename="fabex.png"
   inkscape:export-xdpi="96"
   inkscape:export-ydpi="96"
   xmlns:inkscape="http://www.inkscape.org/namespaces/inkscape"
   xmlns:sodipodi="http://sodipodi.sourceforge.net/DTD/sodipodi-0.dtd"
   xmlns="http://www.w3.org/2000/svg"
   xmlns:svg="http://www.w3.org/2000/svg"><sodipodi:namedview
     id="namedview1"
     pagecolor="#333333"
     bordercolor="#000000"
     borderopacity="0.25"
     inkscape:showpageshadow="2"
     inkscape:pageopacity="0.0"
     inkscape:pagecheckerboard="0"
     inkscape:deskcolor="#d1d1d1"
     inkscape:document-units="mm"
     inkscape:zoom="1"
     inkscape:cx="485.5"
     inkscape:cy="553.5"
     inkscape:window-width="2560"
     inkscape:window-height="1415"
     inkscape:window-x="0"
     inkscape:window-y="0"
     inkscape:window-maximized="1"
     inkscape:current-layer="layer1"
     inkscape:export-bgcolor="#00000000"
     showgrid="false" /><defs
     id="defs1" /><g
     inkscape:groupmode="layer"
     id="layer3"
     inkscape:label="Logo"
     transform="translate(-246.29565,-354.85307)"><g
       id="g171"
       transform="matrix(1.0755869,0,0,1.0755458,-9.9948389,-2.9976768)"
       style="stroke-width:0.929743"
       inkscape:export-filename="fabex/public/logo_fabex.svg"
       inkscape:export-xdpi="96"
       inkscape:export-ydpi="96"><g
         id="g184"
         transform="translate(-1.4359311)"><g
           id="g43"
           style="stroke-width:0.794853"
           transform="matrix(1.5561799,0,0,1.5560353,-156.97534,-166.3181)"><g
             id="g44"
             transform="translate(21.602374)"><g
               id="g34"
               transform="matrix(0.63207908,0,0,0.63215032,179.37904,300.70013)"
               style="stroke-width:0.945206"><g
                 id="g9"
                 transform="matrix(1.1697547,0,0,1.169646,-18.337427,-21.300169)"
                 style="display:inline;fill:#000000;fill-opacity:0;stroke-width:0.808072"><path
                   sodipodi:type="star"
                   style="fill:#000000;fill-opacity:0;stroke-width:0.161615;stroke-linecap:square;stroke-opacity:0"
                   id="path3"
                   inkscape:flatsided="true"
                   sodipodi:sides="6"
                   sodipodi:cx="132.11664"
                   sodipodi:cy="36.370449"
                   sodipodi:r1="55.252541"
                   sodipodi:r2="47.850101"
                   sodipodi:arg1="0.52359878"
                   sodipodi:arg2="1.0471976"
                   inkscape:rounded="-3.469447e-18"
                   inkscape:randomized="0"
                   d="m 179.96674,63.99672 -47.8501,27.62627 -47.850106,-27.626271 1e-6,-55.2525404 47.850105,-27.6262706 47.8501,27.626271 z"
                   inkscape:transform-center-x="4.7461184e-06"
                   transform="matrix(0.75350402,0,0,0.75350402,29.231497,63.477786)" /><g
                   id="g8"
                   style="display:none;fill:#000000;fill-opacity:0;stroke-width:1.21211;stroke-dasharray:none"
                   transform="matrix(0.84350425,0,0,0.84350425,20.15264,14.210825)"><rect
                     style="fill:#000000;fill-opacity:0;stroke:#f9a65c;stroke-width:1.21211;stroke-linecap:square;stroke-dasharray:none;stroke-opacity:1"
                     id="rect3"
                     width="29.114521"
                     height="8.8014555"
                     x="48.518917"
                     y="-133.18265"
                     rx="4.7952547"
                     transform="rotate(90)" /><rect
                     style="fill:#000000;fill-opacity:0;stroke:#f9a65c;stroke-width:1.21211;stroke-linecap:square;stroke-dasharray:none;stroke-opacity:1"
                     id="rect4"
                     width="29.114521"
                     height="8.8014555"
                     x="103.97948"
                     y="-133.18265"
                     rx="4.7952547"
                     transform="rotate(90)" /><rect
                     style="fill:#000000;fill-opacity:0;stroke:#f9a65c;stroke-width:1.21211;stroke-linecap:square;stroke-dasharray:none;stroke-opacity:1"
                     id="rect5"
                     width="29.114521"
                     height="8.8014555"
                     x="169.79277"
                     y="9.4483147"
                     rx="4.7952547"
                     transform="rotate(30)" /><rect
                     style="fill:#000000;fill-opacity:0;stroke:#f9a65c;stroke-width:1.21211;stroke-linecap:square;stroke-dasharray:none;stroke-opacity:1"
                     id="rect6"
                     width="29.114521"
                     height="8.8014555"
                     x="79.39798"
                     y="138.68077"
                     rx="4.7952547"
                     transform="rotate(-30)" /><rect
                     style="fill:#000000;fill-opacity:0;stroke:#f9a65c;stroke-width:1.21211;stroke-linecap:square;stroke-dasharray:none;stroke-opacity:1"
                     id="rect7"
                     width="29.114521"
                     height="8.8014555"
                     x="23.928244"
                     y="138.22113"
                     rx="4.7952547"
                     transform="rotate(-30)" /><rect
                     style="fill:#000000;fill-opacity:0;stroke:#d68c45;stroke-width:1.21211;stroke-linecap:square;stroke-dasharray:none;stroke-opacity:1"
                     id="rect8"
                     width="29.114521"
                     height="8.8014555"
                     x="114.7836"
                     y="10.050814"
                     rx="4.7952547"
                     transform="rotate(30)" /></g></g><g
                 id="g10"
                 transform="matrix(-1.4906753,2.5816854,-2.5819254,-1.4905368,555.44681,88.654381)"
                 style="fill:none;stroke:#ffffff;stroke-width:0.0880988;stroke-dasharray:none;stroke-opacity:1"><path
                   style="fill:none;fill-opacity:1;stroke:#ffffff;stroke-width:0.0880988;stroke-dasharray:none;stroke-opacity:1"
                   d="m 68.313768,113.77429 c -0.01448,-0.0145 -0.02632,-0.37845 -0.02632,-0.80884 0,-0.701 0.0074,-0.78994 0.07104,-0.85357 0.03904,-0.0391 0.514013,-0.37077 1.05544,-0.73712 0.541421,-0.36635 1.126449,-0.76225 1.30005,-0.87978 0.173606,-0.11753 0.346721,-0.23032 0.384695,-0.25066 0.06476,-0.0347 0.06905,0.0156 0.06905,0.81053 v 0.84751 l -0.976533,0.65997 c -0.537088,0.36299 -1.166259,0.79009 -1.398153,0.94912 -0.449654,0.30836 -0.439383,0.30273 -0.479281,0.26284 z"
                   id="path9" /></g><g
                 id="g11"
                 transform="matrix(1.4906753,2.5816854,-2.5819254,1.4905368,347.57731,-279.05151)"
                 style="fill:none;stroke:#ffffff;stroke-width:0.0880988;stroke-dasharray:none;stroke-opacity:1"><path
                   style="fill:none;fill-opacity:1;stroke:#ffffff;stroke-width:0.0880988;stroke-dasharray:none;stroke-opacity:1"
                   d="m 68.313768,113.77429 c -0.01448,-0.0145 -0.02632,-0.37845 -0.02632,-0.80884 0,-0.701 0.0074,-0.78994 0.07104,-0.85357 0.03904,-0.0391 0.514013,-0.37077 1.05544,-0.73712 0.541421,-0.36635 1.126449,-0.76225 1.30005,-0.87978 0.173606,-0.11753 0.346721,-0.23032 0.384695,-0.25066 0.06476,-0.0347 0.06905,0.0156 0.06905,0.81053 v 0.84751 l -0.976533,0.65997 c -0.537088,0.36299 -1.166259,0.79009 -1.398153,0.94912 -0.449654,0.30836 -0.439383,0.30273 -0.479281,0.26284 z"
                   id="path11" /></g><g
                 id="g12"
                 transform="matrix(2.9813506,0,0,2.9810735,-75.655616,-283.17848)"
                 style="fill:none;stroke:#ffffff;stroke-width:0.0880988;stroke-dasharray:none;stroke-opacity:1"><path
                   style="fill:none;fill-opacity:1;stroke:#ffffff;stroke-width:0.0880988;stroke-dasharray:none;stroke-opacity:1"
                   d="m 68.313768,113.77429 c -0.01448,-0.0145 -0.02632,-0.37845 -0.02632,-0.80884 0,-0.701 0.0074,-0.78994 0.07104,-0.85357 0.03904,-0.0391 0.514013,-0.37077 1.05544,-0.73712 0.541421,-0.36635 1.126449,-0.76225 1.30005,-0.87978 0.173606,-0.11753 0.346721,-0.23032 0.384695,-0.25066 0.06476,-0.0347 0.06905,0.0156 0.06905,0.81053 v 0.84751 l -0.976533,0.65997 c -0.537088,0.36299 -1.166259,0.79009 -1.398153,0.94912 -0.449654,0.30836 -0.439383,0.30273 -0.479281,0.26284 z"
                   id="path12" /></g><g
                 id="g13"
                 transform="matrix(1.4906753,-2.5816854,2.5819254,1.4905368,-290.55355,80.909585)"
                 style="fill:none;stroke:#ffffff;stroke-width:0.0880988;stroke-dasharray:none;stroke-opacity:1"><path
                   style="fill:none;fill-opacity:1;stroke:#ffffff;stroke-width:0.0880988;stroke-dasharray:none;stroke-opacity:1"
                   d="m 68.313768,113.77429 c -0.01448,-0.0145 -0.02632,-0.37845 -0.02632,-0.80884 0,-0.701 0.0074,-0.78994 0.07104,-0.85357 0.03904,-0.0391 0.514013,-0.37077 1.05544,-0.73712 0.541421,-0.36635 1.126449,-0.76225 1.30005,-0.87978 0.173606,-0.11753 0.346721,-0.23032 0.384695,-0.25066 0.06476,-0.0347 0.06905,0.0156 0.06905,0.81053 v 0.84751 l -0.976533,0.65997 c -0.537088,0.36299 -1.166259,0.79009 -1.398153,0.94912 -0.449654,0.30836 -0.439383,0.30273 -0.479281,0.26284 z"
                   id="path13" /></g><g
                 id="g14"
                 transform="matrix(-1.4906753,-2.5816854,2.5819254,-1.4905368,-82.699153,448.92236)"
                 style="fill:none;stroke:#ffffff;stroke-width:0.0880988;stroke-dasharray:none;stroke-opacity:1"><path
                   style="fill:none;fill-opacity:1;stroke:#ffffff;stroke-width:0.0880988;stroke-dasharray:none;stroke-opacity:1"
                   d="m 68.313768,113.77429 c -0.01448,-0.0145 -0.02632,-0.37845 -0.02632,-0.80884 0,-0.701 0.0074,-0.78994 0.07104,-0.85357 0.03904,-0.0391 0.514013,-0.37077 1.05544,-0.73712 0.541421,-0.36635 1.126449,-0.76225 1.30005,-0.87978 0.173606,-0.11753 0.346721,-0.23032 0.384695,-0.25066 0.06476,-0.0347 0.06905,0.0156 0.06905,0.81053 v 0.84751 l -0.976533,0.65997 c -0.537088,0.36299 -1.166259,0.79009 -1.398153,0.94912 -0.449654,0.30836 -0.439383,0.30273 -0.479281,0.26284 z"
                   id="path14" /></g><g
                 id="g15"
                 transform="matrix(-2.9813506,0,0,-2.9810735,339.99075,453.18304)"
                 style="display:inline;fill:none;stroke:#ffffff;stroke-width:0.0880988;stroke-dasharray:none;stroke-opacity:1"
                 inkscape:tile-cx="132.10511"
                 inkscape:tile-cy="121.25536"
                 inkscape:tile-w="7.7482931"
                 inkscape:tile-h="23.473191"
                 inkscape:tile-x0="128.2943"
                 inkscape:tile-y0="109.51877"><path
                   style="fill:none;fill-opacity:1;stroke:#ffffff;stroke-width:0.0880988;stroke-dasharray:none;stroke-opacity:1"
                   d="m 68.313768,113.77429 c -0.01448,-0.0145 -0.02632,-0.37845 -0.02632,-0.80884 0,-0.701 0.0074,-0.78994 0.07104,-0.85357 0.03904,-0.0391 0.514013,-0.37077 1.05544,-0.73712 0.541421,-0.36635 1.126449,-0.76225 1.30005,-0.87978 0.173606,-0.11753 0.346721,-0.23032 0.384695,-0.25066 0.06476,-0.0347 0.06905,0.0156 0.06905,0.81053 v 0.84751 l -0.976533,0.65997 c -0.537088,0.36299 -1.166259,0.79009 -1.398153,0.94912 -0.449654,0.30836 -0.439383,0.30273 -0.479281,0.26284 z"
                   id="path15" /></g><g
                 id="g22"
                 style="fill:#f2f2f2;fill-opacity:1;stroke-width:0.808072"
                 transform="matrix(1.1697547,0,0,1.169646,-22.420582,-21.300169)"><g
                   id="g21"
                   style="fill:#f2f2f2;fill-opacity:1;stroke:none;stroke-width:0.808072"><path
                     style="fill:#f2f2f2;fill-opacity:1;stroke:none;stroke-width:0.224538;stroke-dasharray:none;stroke-opacity:1"
                     d="m 138.57884,85.16702 c 0.0756,-1.094775 0.15959,-2.094683 0.18657,-2.22202 0.0505,-0.237796 0.63514,-0.650048 0.89509,-0.631086 0.0722,0.0052 1.13765,0.499663 2.36771,1.09872 1.23005,0.599046 2.91788,1.419429 3.75075,1.823043 0.83285,0.403638 1.56759,0.777072 1.63277,0.829863 0.10096,0.08159 -0.26904,0.315134 -2.48567,1.568739 l -2.60415,1.472752 -1.9092,-0.929773 c -1.05006,-0.511377 -1.92318,-0.950007 -1.94027,-0.974754 -0.0172,-0.02464 0.0308,-0.940661 0.10642,-2.035433 z"
                     id="path16" /><path
                     style="fill:#f2f2f2;fill-opacity:1;stroke:none;stroke-width:0.224538;stroke-dasharray:none;stroke-opacity:1"
                     d="m 130.5221,82.63032 c -0.91029,-0.612885 -1.73425,-1.185552 -1.83104,-1.27259 -0.1807,-0.162607 -0.24538,-0.87507 -0.099,-1.090715 0.0406,-0.05989 1.00155,-0.735401 2.13538,-1.501132 1.13381,-0.76573 2.6882,-1.817246 3.45417,-2.336722 0.76599,-0.51945 1.45676,-0.96904 1.53507,-0.999089 0.12114,-0.04664 0.13839,0.390562 0.11574,2.937017 l -0.0266,2.991635 -1.75981,1.188534 c -0.96789,0.65369 -1.78432,1.190522 -1.81429,1.192943 -0.0299,0.0025 -0.79924,-0.496996 -1.70953,-1.109881 z"
                     id="path17" /><path
                     style="fill:#f2f2f2;fill-opacity:1;stroke:none;stroke-width:0.224538;stroke-dasharray:none;stroke-opacity:1"
                     d="m 124.2909,88.262028 c -0.98591,0.481889 -1.89384,0.909131 -2.01761,0.94943 -0.23117,0.07519 -0.88053,-0.225022 -0.99408,-0.459629 -0.0316,-0.06511 -0.1361,-1.235065 -0.23233,-2.599852 -0.0962,-1.364777 -0.22968,-3.236675 -0.29658,-4.159765 -0.0669,-0.923088 -0.11083,-1.746112 -0.0977,-1.828952 0.0202,-0.128231 0.40743,0.07543 2.6014,1.368278 l 2.57751,1.518883 0.1494,2.118306 c 0.0822,1.165068 0.13886,2.14053 0.12597,2.167698 -0.0127,0.02719 -0.83003,0.443665 -1.81595,0.925552 z"
                     id="path18" /><path
                     style="fill:#f2f2f2;fill-opacity:1;stroke:none;stroke-width:0.224538;stroke-dasharray:none;stroke-opacity:1"
                     d="m 125.89972,96.571796 c -0.0756,1.094771 -0.15959,2.094681 -0.18658,2.222021 -0.0505,0.237801 -0.63514,0.650051 -0.89509,0.631091 -0.0722,-0.005 -1.13765,-0.49967 -2.36771,-1.098731 -1.23004,-0.59904 -2.91788,-1.419424 -3.75074,-1.823038 -0.83285,-0.403638 -1.5676,-0.777072 -1.63277,-0.829863 -0.10097,-0.08159 0.26904,-0.315134 2.48566,-1.568739 l 2.60415,-1.472752 1.9092,0.929773 c 1.05006,0.511377 1.92319,0.950007 1.94027,0.974754 0.0172,0.02464 -0.0308,0.940661 -0.10642,2.035433 z"
                     id="path19" /><path
                     style="display:inline;fill:#f2f2f2;fill-opacity:1;stroke:none;stroke-width:0.224538;stroke-dasharray:none;stroke-opacity:1"
                     d="m 134.0842,99.232779 c 0.91029,0.61288 1.73425,1.185551 1.83104,1.272591 0.1807,0.16261 0.24539,0.87507 0.099,1.09071 -0.0406,0.0599 -1.00155,0.7354 -2.13537,1.50113 -1.13382,0.76574 -2.68821,1.81725 -3.45418,2.33673 -0.76598,0.51945 -1.45676,0.96904 -1.53507,0.99909 -0.12114,0.0466 -0.13839,-0.39057 -0.11573,-2.93702 l 0.0266,-2.99164 1.75981,-1.188531 c 0.9679,-0.653689 1.78432,-1.190519 1.8143,-1.192939 0.0299,-0.003 0.79924,0.49699 1.70952,1.109879 z"
                     id="path20" /><path
                     style="fill:#f2f2f2;fill-opacity:1;stroke:none;stroke-width:0.224538;stroke-dasharray:none;stroke-opacity:1"
                     d="m 140.3659,93.441219 c 0.98591,-0.481889 1.89384,-0.909131 2.01761,-0.94943 0.23117,-0.07519 0.88053,0.225022 0.99408,0.459629 0.0316,0.06511 0.1361,1.235065 0.23233,2.599852 0.0962,1.364777 0.22968,3.236673 0.29658,4.159768 0.0669,0.923092 0.11083,1.746122 0.0977,1.828962 -0.0202,0.12823 -0.40743,-0.0754 -2.6014,-1.36828 l -2.57751,-1.518889 -0.1494,-2.118311 c -0.0822,-1.165068 -0.13886,-2.14053 -0.12597,-2.167698 0.0128,-0.02719 0.83003,-0.443665 1.81595,-0.925552 z"
                     id="path21" /></g></g><g
                 id="g33"
                 style="fill:#f2f2f2;stroke-width:0.808072"
                 transform="matrix(1.1697547,0,0,1.169646,-22.420582,-21.300169)"><g
                   id="g32"
                   style="display:inline;fill:#e87d0d;fill-opacity:1;stroke-width:0.808072"><path
                     style="fill:#e87d0d;fill-opacity:1;stroke:none;stroke-width:0.0880988;stroke-dasharray:none;stroke-opacity:1"
                     d="m 68.287448,115.3846 c 0,-0.61603 0.01277,-0.84223 0.04934,-0.87372 0.05366,-0.0462 0.205555,-0.14971 1.754632,-1.19551 0.569011,-0.38415 1.043959,-0.69845 1.055439,-0.69845 0.01148,0 0.02089,0.3803 0.02089,0.84511 v 0.84511 l -1.378108,0.93055 c -0.757956,0.5118 -1.406018,0.94125 -1.440129,0.95434 -0.05519,0.0212 -0.06203,-0.0678 -0.06203,-0.80743 z"
                     id="path22"
                     transform="matrix(2.5486972,-1.0877134e-8,1.0877134e-8,2.5486972,-45.509569,-223.89535)" /><path
                     id="path23"
                     style="fill:none;fill-opacity:1;stroke:#e87d0d;stroke-width:0.317055;stroke-linejoin:round;stroke-dasharray:none;stroke-opacity:1"
                     d="m 69.754316,105.768 c -0.307241,0 -0.614382,0.0791 -0.888883,0.23763 l -13.8223,7.98008 c -0.549003,0.31698 -0.888882,0.90559 -0.888884,1.53953 v 15.96056 c 8e-6,0.63394 0.339885,1.22256 0.888884,1.53953 l 13.8223,7.98069 c 0.549005,0.31697 1.228776,0.31696 1.777767,0 l 13.8223,-7.98069 c 0.549006,-0.31697 0.888878,-0.9056 0.888883,-1.53953 v -15.96056 c -7e-6,-0.63394 -0.339877,-1.22256 -0.888883,-1.53953 L 70.6432,106.00563 C 70.3687,105.84714 70.061548,105.768 69.754316,105.768 Z m 1.413414,2.35258 11.19316,6.46245 -1.633202,1.00526 c -0.748406,0.46066 -1.087015,0.64299 -1.072175,0.66869 0.01819,0.0315 2.104476,1.06263 2.826422,1.397 l 0.237833,0.11029 0.27068,-0.15632 0.793994,-0.42477 v 12.35616 c -1.005757,-0.49855 -2.725463,-1.34751 -2.735993,-1.32927 -0.01819,0.0315 0.131982,2.35378 0.203364,3.14617 l 0.02352,0.26115 1.362116,0.65146 -11.508445,6.64412 c -5.55e-4,-1.14768 -0.0018,-2.28732 0,-3.40185 0,0 -0.745284,0.43569 -1.503235,0.94748 l -1.378134,0.93045 v 0.84509 c 6e-6,0.23757 0.0025,0.45273 0.0065,0.60665 L 57.27183,132.5004 c 1.048689,-0.69197 2.680419,-1.77241 2.6703,-1.78994 -0.01819,-0.0315 -2.104477,-1.06282 -2.826423,-1.39719 l -0.237833,-0.1101 -0.270882,0.15633 -0.883612,0.53426 v -12.68747 c 1.134656,0.59106 2.819981,1.46661 2.83068,1.44808 0.01819,-0.0315 -0.131762,-2.35396 -0.203161,-3.14637 l -0.02352,-0.26115 -1.198492,-0.65287 11.162543,-6.44522 c 0.0059,1.25864 0.01836,3.24491 0.03873,3.24491 0.03638,0 1.972515,-1.29114 2.623058,-1.74918 l 0.214516,-0.15085 z"
                     transform="matrix(2.5486972,-1.0877134e-8,1.0877134e-8,2.5486972,-45.509569,-223.89535)" /><path
                     style="fill:#e87d0d;fill-opacity:1;stroke:none;stroke-width:0.0880988;stroke-dasharray:none;stroke-opacity:1"
                     d="m 68.287448,115.3846 c 0,-0.61603 0.01277,-0.84223 0.04934,-0.87372 0.05366,-0.0462 0.205555,-0.14971 1.754632,-1.19551 0.569011,-0.38415 1.043959,-0.69845 1.055439,-0.69845 0.01148,0 0.02089,0.3803 0.02089,0.84511 v 0.84511 l -1.378108,0.93055 c -0.757956,0.5118 -1.406018,0.94125 -1.440129,0.95434 -0.05519,0.0212 -0.06203,-0.0678 -0.06203,-0.80743 z"
                     id="path24"
                     transform="matrix(1.2743486,-2.2072365,2.2072365,1.2743486,-229.22153,87.385202)" /><path
                     style="fill:#e87d0d;fill-opacity:1;stroke:none;stroke-width:0.0880988;stroke-dasharray:none;stroke-opacity:1"
                     d="m 68.287448,115.3846 c 0,-0.61603 0.01277,-0.84223 0.04934,-0.87372 0.05366,-0.0462 0.205555,-0.14971 1.754632,-1.19551 0.569011,-0.38415 1.043959,-0.69845 1.055439,-0.69845 0.01148,0 0.02089,0.3803 0.02089,0.84511 v 0.84511 l -1.378108,0.93055 c -0.757956,0.5118 -1.406018,0.94125 -1.440129,0.95434 -0.05519,0.0212 -0.06203,-0.0678 -0.06203,-0.80743 z"
                     id="path25"
                     transform="matrix(-1.2743486,-2.2072365,2.2072365,-1.2743486,-51.530948,402.02123)" /><path
                     id="path27"
                     style="fill:#e87d0d;fill-opacity:1;stroke-width:0.808072;stroke-linecap:round;stroke-linejoin:round;stroke-dashoffset:70.2992"
                     inkscape:transform-center-x="1.4583898e-06"
                     transform="matrix(0.62887238,0,0,0.62887238,12.767622,35.582421)"
                     d="m 195.15409,90.894327 -5.12363,2.958131 -5.12364,-2.958131 v -5.916263 l 5.12364,-2.958132 5.12363,2.958132 z" /><path
                     style="fill:#e87d0d;fill-opacity:1;stroke:none;stroke-width:0.0880988;stroke-dasharray:none;stroke-opacity:1"
                     d="m 68.287448,115.3846 c 0,-0.61603 0.01277,-0.84223 0.04934,-0.87372 0.05366,-0.0462 0.205555,-0.14971 1.754632,-1.19551 0.569011,-0.38415 1.043959,-0.69845 1.055439,-0.69845 0.01148,0 0.02089,0.3803 0.02089,0.84511 v 0.84511 l -1.378108,0.93055 c -0.757956,0.5118 -1.406018,0.94125 -1.440129,0.95434 -0.05519,0.0212 -0.06203,-0.0678 -0.06203,-0.80743 z"
                     id="path28"
                     transform="matrix(-1.2743486,2.2072365,-2.2072365,-1.2743486,494.0073,94.006689)" /><path
                     style="fill:#e87d0d;fill-opacity:1;stroke:none;stroke-width:0.0880988;stroke-dasharray:none;stroke-opacity:1"
                     d="m 68.287448,115.3846 c 0,-0.61603 0.01277,-0.84223 0.04934,-0.87372 0.05366,-0.0462 0.205555,-0.14971 1.754632,-1.19551 0.569011,-0.38415 1.043959,-0.69845 1.055439,-0.69845 0.01148,0 0.02089,0.3803 0.02089,0.84511 v 0.84511 l -1.378108,0.93055 c -0.757956,0.5118 -1.406018,0.94125 -1.440129,0.95434 -0.05519,0.0212 -0.06203,-0.0678 -0.06203,-0.80743 z"
                     id="path29"
                     transform="matrix(1.2743486,2.2072365,-2.2072365,1.2743486,316.30382,-220.36696)" /><path
                     style="display:inline;fill:#e87d0d;fill-opacity:1;stroke:none;stroke-width:0.0880988;stroke-dasharray:none;stroke-opacity:1"
                     d="m 68.287448,115.3846 c 0,-0.61603 0.01277,-0.84223 0.04934,-0.87372 0.05366,-0.0462 0.205555,-0.14971 1.754632,-1.19551 0.569011,-0.38415 1.043959,-0.69845 1.055439,-0.69845 0.01148,0 0.02089,0.3803 0.02089,0.84511 v 0.84511 l -1.378108,0.93055 c -0.757956,0.5118 -1.406018,0.94125 -1.440129,0.95434 -0.05519,0.0212 -0.06203,-0.0678 -0.06203,-0.80743 z"
                     id="path30"
                     transform="matrix(-2.5486972,0,0,-2.5486972,309.81822,405.66393)" /><path
                     id="path32"
                     style="display:none;fill:#e87d0d;fill-opacity:1;stroke:#000000;stroke-width:0.339846;stroke-linecap:round;stroke-linejoin:round;stroke-dashoffset:70.2992"
                     inkscape:transform-center-x="-8.0625184e-06"
                     inkscape:transform-center-y="1.0499493e-05"
                     d="m 138.26085,94.342301 -5.98831,3.459224 -5.98832,-3.459224 v -6.91845 l 5.98832,-3.459225 5.98831,3.459225 z" /></g></g></g><text
               xml:space="preserve"
               style="font-size:17.0218px;line-height:18;font-family:Cantarell;-inkscape-font-specification:Cantarell;fill:#e87d0d;fill-opacity:1;stroke-width:1.17152;stroke-linecap:square;stroke-opacity:0"
               x="381.70996"
               y="385.70084"
               id="text34"><tspan
                 sodipodi:role="line"
                 id="tspan34"
                 x="381.70996"
                 y="385.70084"
                 style="font-style:normal;font-variant:normal;font-weight:normal;font-stretch:normal;font-size:17.0218px;font-family:Expansiva;-inkscape-font-specification:Expansiva;fill:#e87d0d;fill-opacity:1;stroke-width:1.17152">CNC</tspan></text><g
               id="g42"
               transform="translate(265.68228,174.93421)"
               style="stroke-width:0.794853"><text
                 xml:space="preserve"
                 style="font-size:48.1297px;line-height:18;font-family:Cantarell;-inkscape-font-specification:Cantarell;letter-spacing:0px;fill:#ffffff;stroke-width:2.38314;stroke-linecap:square;stroke-opacity:0"
                 x="39.727917"
                 y="195.01071"
                 id="text35"><tspan
                   sodipodi:role="line"
                   id="tspan35"
                   x="39.727917"
                   y="195.01071"
                   style="font-style:normal;font-variant:normal;font-weight:normal;font-stretch:normal;font-family:Carlito;-inkscape-font-specification:Carlito;fill:#ffffff;stroke-width:2.38314">FABEX</tspan></text><g
                 id="g41"
                 transform="translate(0.65756393,-0.03209934)"
                 style="display:none;stroke-width:0.794853"><g
                   id="g40"
                   transform="translate(6.5802027,0.52916663)"
                   style="stroke-width:0.794853"><path
                     style="fill:#ffffff;fill-opacity:1;stroke:none;stroke-width:1.73887;stroke-linecap:round;stroke-linejoin:round;stroke-dasharray:3.47776;stroke-dashoffset:16.1716;stroke-opacity:1"
                     d="m 62.247901,164.11964 1.389527,-2.7589 h 37.860202 l -1.935613,2.7592 z"
                     id="path35"
                     sodipodi:nodetypes="ccccc" /><path
                     style="fill:#ffffff;fill-opacity:1;stroke:none;stroke-width:1.73887;stroke-linecap:round;stroke-linejoin:round;stroke-dasharray:3.47776;stroke-dashoffset:16.1716;stroke-opacity:1"
                     d="m 59.502358,173.79518 1.904021,-2.94595 h 12.441148 l -1.935611,2.94628 z"
                     id="path36"
                     sodipodi:nodetypes="ccccc" /><path
                     style="fill:#e87d0d;fill-opacity:1;stroke:none;stroke-width:0.794853;stroke-linecap:round;stroke-linejoin:round;stroke-dasharray:none;stroke-dashoffset:70.2992;stroke-opacity:1"
                     d="m 57.036162,161.1677 4.304756,0.14214 -16.369024,35.18895 -2.128572,0.80253 -1.277074,-1.82266 z"
                     id="path37"
                     sodipodi:nodetypes="cccccc" /><path
                     style="fill:#e87d0d;fill-opacity:1;stroke:#e87d0d;stroke-width:0.635885;stroke-linecap:round;stroke-linejoin:miter;stroke-dasharray:none;stroke-dashoffset:70.2992;stroke-opacity:1;paint-order:normal"
                     d="m 39.469173,191.56929 1.32468,1.82224"
                     id="path38" /><path
                     style="fill:#e87d0d;fill-opacity:1;stroke:#e87d0d;stroke-width:0.635885;stroke-linecap:round;stroke-linejoin:round;stroke-dasharray:none;stroke-dashoffset:70.2992;stroke-opacity:1;paint-order:normal"
                     d="m 49.846997,195.35052 4.95785,-2.71279"
                     id="path39" /><path
                     style="fill:#e87d0d;fill-opacity:1;stroke:#e87d0d;stroke-width:0.794853;stroke-linecap:round;stroke-linejoin:miter;stroke-dasharray:none;stroke-dashoffset:70.2992;stroke-opacity:1;paint-order:normal"
                     d="m 35.145971,191.98638 3.975449,3.42874"
                     id="path40" /></g></g></g></g></g></g></g></g></svg>
